<svg width="21" height="20" viewBox="0 0 21 20" fill="none" xmlns="http://www.w3.org/2000/svg">
<g id="Social" clip-path="url(#clip0_3600_617)">
<path id="Vector" d="M20.0581 20.0001V19.9993H20.0631V12.6643C20.0631 9.07593 19.2906 6.31177 15.0956 6.31177C13.0789 6.31177 11.7256 7.41843 11.173 8.4676H11.1147V6.64677H7.13721V19.9993H11.2789V13.3876C11.2789 11.6468 11.6089 9.96343 13.7647 9.96343C15.8889 9.96343 15.9206 11.9501 15.9206 13.4993V20.0001H20.0581Z" fill="white"/>
<path id="Vector_2" d="M0.393066 6.64746H4.53973V20H0.393066V6.64746Z" fill="white"/>
<path id="Vector_3" d="M2.46465 0C1.13882 0 0.0629883 1.07583 0.0629883 2.40167C0.0629883 3.7275 1.13882 4.82583 2.46465 4.82583C3.79049 4.82583 4.86632 3.7275 4.86632 2.40167C4.86549 1.07583 3.78965 0 2.46465 0V0Z" fill="white"/>
</g>
<defs>
<clipPath id="clip0_3600_617">
<rect width="20" height="20" fill="white" transform="translate(0.0629883)"/>
</clipPath>
</defs>
</svg>
