<svg width="21" height="20" viewBox="0 0 21 20" fill="none" xmlns="http://www.w3.org/2000/svg">
<g id="Group 3">
<path id="Vector" d="M20.0434 5.88005C19.9966 4.81738 19.8247 4.0868 19.5785 3.45374C19.3246 2.78176 18.9339 2.18014 18.422 1.68002C17.9219 1.1721 17.3163 0.777435 16.6521 0.527447C16.0154 0.281274 15.2886 0.109427 14.2259 0.0625732C13.1553 0.0117516 12.8155 0 10.1001 0C7.38471 0 7.04483 0.0117516 5.97819 0.0586052C4.91551 0.105459 4.18494 0.277459 3.55203 0.523479C2.8799 0.777435 2.27829 1.16814 1.77816 1.68002C1.27025 2.18014 0.875731 2.78573 0.625591 3.44992C0.379419 4.0868 0.207571 4.81341 0.160718 5.87609C0.109896 6.9467 0.0981445 7.28658 0.0981445 10.002C0.0981445 12.7173 0.109896 13.0572 0.15675 14.1239C0.203603 15.1865 0.375603 15.9171 0.621775 16.5502C0.875731 17.2221 1.27025 17.8238 1.77816 18.3239C2.27829 18.8318 2.88387 19.2265 3.54806 19.4765C4.18494 19.7226 4.91155 19.8945 5.97438 19.9413C7.04087 19.9883 7.3809 19.9999 10.0963 19.9999C12.8116 19.9999 13.1515 19.9883 14.2182 19.9413C15.2808 19.8945 16.0114 19.7226 16.6443 19.4765C17.9884 18.9568 19.0511 17.8941 19.5708 16.5502C19.8168 15.9133 19.9888 15.1865 20.0356 14.1239C20.0825 13.0572 20.0942 12.7173 20.0942 10.002C20.0942 7.28658 20.0903 6.9467 20.0434 5.88005ZM18.2424 14.0457C18.1993 15.0225 18.0353 15.5499 17.8985 15.9015C17.5625 16.7728 16.871 17.4643 15.9997 17.8004C15.648 17.9372 15.1168 18.1012 14.1438 18.1441C13.0889 18.1911 12.7726 18.2027 10.1041 18.2027C7.43553 18.2027 7.11519 18.1911 6.06411 18.1441C5.08736 18.1012 4.55992 17.9372 4.20829 17.8004C3.7747 17.6402 3.38003 17.3862 3.05969 17.0541C2.72759 16.7298 2.47364 16.3391 2.31339 15.9055C2.17664 15.5539 2.01258 15.0225 1.96969 14.0497C1.92269 12.9948 1.91109 12.6783 1.91109 10.0097C1.91109 7.34122 1.92269 7.02087 1.96969 5.96995C2.01258 4.99319 2.17664 4.46575 2.31339 4.11412C2.47364 3.68038 2.72759 3.28586 3.06365 2.96536C3.38781 2.63327 3.77851 2.37931 4.21225 2.21921C4.56388 2.08247 5.0953 1.9184 6.06808 1.87537C7.12297 1.82851 7.4395 1.81676 10.1079 1.81676C12.7804 1.81676 13.0967 1.82851 14.1478 1.87537C15.1246 1.9184 15.652 2.08247 16.0036 2.21921C16.4372 2.37931 16.8319 2.63327 17.1522 2.96536C17.4843 3.28967 17.7383 3.68038 17.8985 4.11412C18.0353 4.46575 18.1993 4.99701 18.2424 5.96995C18.2892 7.02484 18.301 7.34122 18.301 10.0097C18.301 12.6783 18.2892 12.9908 18.2424 14.0457Z" fill="white"/>
<path id="Vector_2" d="M10.1001 4.86426C7.26372 4.86426 4.9624 7.16543 4.9624 10.002C4.9624 12.8385 7.26372 15.1397 10.1001 15.1397C12.9367 15.1397 15.2378 12.8385 15.2378 10.002C15.2378 7.16543 12.9367 4.86426 10.1001 4.86426ZM10.1001 13.3347C8.26001 13.3347 6.76741 11.8422 6.76741 10.002C6.76741 8.16172 8.26001 6.66927 10.1001 6.66927C11.9404 6.66927 13.4328 8.16172 13.4328 10.002C13.4328 11.8422 11.9404 13.3347 10.1001 13.3347Z" fill="white"/>
<path id="Vector_3" d="M16.6407 4.6611C16.6407 5.32346 16.1036 5.86052 15.4411 5.86052C14.7788 5.86052 14.2417 5.32346 14.2417 4.6611C14.2417 3.99858 14.7788 3.46167 15.4411 3.46167C16.1036 3.46167 16.6407 3.99858 16.6407 4.6611Z" fill="white"/>
</g>
</svg>
