<svg width="23" height="19" viewBox="0 0 23 19" fill="none" xmlns="http://www.w3.org/2000/svg">
<path id="Vector" d="M1.46921 8.27456L15.1321 2.63503C16.4808 2.04758 21.0547 0.167738 21.0547 0.167738C21.0547 0.167738 23.1657 -0.654693 22.9898 1.34264C22.9312 2.16507 22.462 5.04358 21.9929 8.15707L20.527 17.38C20.527 17.38 20.4097 18.7312 19.4128 18.9662C18.4159 19.2011 16.774 18.1437 16.4808 17.9087C16.2463 17.7325 12.0829 15.089 10.5583 13.7966C10.1478 13.4441 9.6787 12.7392 10.6169 11.9168C12.7279 9.97816 15.2494 7.56962 16.774 6.04224C17.4777 5.3373 18.1814 3.69244 15.2494 5.68977L6.9813 11.2706C6.9813 11.2706 6.04307 11.858 4.28389 11.3293C2.52472 10.8006 0.472345 10.0957 0.472345 10.0957C0.472345 10.0957 -0.934996 9.21448 1.46921 8.27456Z" fill="white"/>
</svg>
