<svg width="25" height="24" viewBox="0 0 25 24" fill="none" xmlns="http://www.w3.org/2000/svg">
<g id="vuesax/outline/arrow-left">
<g id="vuesax/outline/arrow-left_2">
<g id="arrow-left">
<path id="Vector" d="M16 12.75H10C9.59 12.75 9.25 12.41 9.25 12C9.25 11.59 9.59 11.25 10 11.25H16C16.41 11.25 16.75 11.59 16.75 12C16.75 12.41 16.41 12.75 16 12.75Z" fill="white"/>
<path id="Vector_2" d="M11.9999 15.7499C11.8099 15.7499 11.6199 15.6799 11.4699 15.5299L8.46994 12.5299C8.17994 12.2399 8.17994 11.7599 8.46994 11.4699L11.4699 8.46994C11.7599 8.17994 12.2399 8.17994 12.5299 8.46994C12.8199 8.75994 12.8199 9.23994 12.5299 9.52994L10.0599 11.9999L12.5299 14.4699C12.8199 14.7599 12.8199 15.2399 12.5299 15.5299C12.3799 15.6799 12.1899 15.7499 11.9999 15.7499Z" fill="white"/>
</g>
</g>
</g>
</svg>
