<svg width="141" height="91" viewBox="0 0 141 91" fill="none" xmlns="http://www.w3.org/2000/svg">
<g id="Frame" clip-path="url(#clip0_2542_2469)">
<path id="Vector" d="M122.31 90.91C123.768 90.91 124.95 89.728 124.95 88.27C124.95 86.812 123.768 85.63 122.31 85.63C120.852 85.63 119.67 86.812 119.67 88.27C119.67 89.728 120.852 90.91 122.31 90.91Z" fill="#2AD168"/>
<path id="Vector_2" d="M98.3802 90.91C98.9048 90.912 99.4181 90.7583 99.8552 90.4683C100.292 90.1783 100.634 89.7651 100.836 89.2811C101.038 88.797 101.092 88.2639 100.991 87.7492C100.889 87.2345 100.638 86.7614 100.268 86.3898C99.8975 86.0181 99.4253 85.7647 98.911 85.6617C98.3967 85.5586 97.8633 85.6105 97.3785 85.8108C96.8937 86.0111 96.4793 86.3507 96.1876 86.7867C95.896 87.2227 95.7402 87.7355 95.7402 88.26C95.7402 88.9611 96.0181 89.6336 96.5129 90.1303C97.0078 90.627 97.6792 90.9074 98.3802 90.91Z" fill="#2AD168"/>
<path id="Vector_3" d="M74.4498 90.91C74.9739 90.91 75.4863 90.7546 75.9221 90.4634C76.3579 90.1722 76.6975 89.7584 76.8981 89.2742C77.0986 88.7899 77.1511 88.2571 77.0488 87.743C76.9466 87.229 76.6942 86.7568 76.3236 86.3862C75.953 86.0156 75.4808 85.7632 74.9668 85.6609C74.4527 85.5587 73.9199 85.6112 73.4357 85.8117C72.9514 86.0123 72.5376 86.352 72.2465 86.7878C71.9553 87.2236 71.7998 87.7359 71.7998 88.26C71.7998 88.608 71.8683 88.9526 72.0015 89.2742C72.1346 89.5957 72.3299 89.8878 72.5759 90.1338C72.822 90.3799 73.1142 90.5752 73.4357 90.7084C73.7572 90.8415 74.1018 90.91 74.4498 90.91Z" fill="#2AD168"/>
<path id="Vector_4" d="M50.5101 90.91C51.9681 90.91 53.1501 89.728 53.1501 88.27C53.1501 86.812 51.9681 85.63 50.5101 85.63C49.0521 85.63 47.8701 86.812 47.8701 88.27C47.8701 89.728 49.0521 90.91 50.5101 90.91Z" fill="#2AD168"/>
<path id="Vector_5" d="M27.5901 90.5955C28.9386 90.0411 29.5823 88.4984 29.0279 87.1499C28.4735 85.8014 26.9308 85.1578 25.5823 85.7122C24.2338 86.2666 23.5901 87.8092 24.1445 89.1577C24.6989 90.5062 26.2416 91.15 27.5901 90.5955Z" fill="#2AD168"/>
<path id="Vector_6" d="M2.65017 85.66C2.1252 85.658 1.61153 85.812 1.17421 86.1025C0.736895 86.3929 0.395678 86.8067 0.193868 87.2913C-0.00794293 87.7759 -0.0612624 88.3096 0.0406694 88.8246C0.142601 89.3396 0.395167 89.8126 0.766377 90.1838C1.13759 90.555 1.61065 90.8076 2.12563 90.9095C2.64061 91.0115 3.17433 90.9581 3.65896 90.7563C4.14359 90.5545 4.55737 90.2134 4.8478 89.7761C5.13822 89.3387 5.29216 88.825 5.29018 88.3C5.28755 87.6007 5.00858 86.9307 4.51406 86.4361C4.01953 85.9416 3.34953 85.6627 2.65017 85.66Z" fill="#2AD168"/>
<path id="Vector_7" d="M122.31 69.5C123.768 69.5 124.95 68.318 124.95 66.86C124.95 65.402 123.768 64.22 122.31 64.22C120.852 64.22 119.67 65.402 119.67 66.86C119.67 68.318 120.852 69.5 122.31 69.5Z" fill="#2AD168"/>
<path id="Vector_8" d="M98.3803 69.5001C98.9052 69.502 99.419 69.348 99.8563 69.0576C100.294 68.7672 100.635 68.3534 100.837 67.8688C101.038 67.3841 101.092 66.8505 100.99 66.3355C100.888 65.8205 100.635 65.3474 100.264 64.9762C99.893 64.605 99.4198 64.3524 98.9048 64.2505C98.3898 64.1485 97.8562 64.2019 97.3716 64.4037C96.887 64.6055 96.4732 64.9467 96.1828 65.384C95.8923 65.8213 95.7383 66.3351 95.7403 66.86C95.7429 67.5594 96.022 68.2293 96.5165 68.7239C97.011 69.2184 97.6809 69.4974 98.3803 69.5001Z" fill="#2AD168"/>
<path id="Vector_9" d="M74.4498 69.5001C74.9744 69.5 75.4871 69.3444 75.9231 69.0527C76.3591 68.7611 76.6988 68.3466 76.8991 67.8618C77.0993 67.377 77.1512 66.8437 77.0481 66.3293C76.9451 65.815 76.6917 65.3429 76.3201 64.9726C75.9485 64.6024 75.4753 64.3509 74.9606 64.2497C74.4459 64.1486 73.9128 64.2025 73.4287 64.4047C72.9447 64.6068 72.5316 64.948 72.2416 65.3851C71.9516 65.8222 71.7978 66.3355 71.7998 66.86C71.7998 67.2076 71.8684 67.5517 72.0017 67.8726C72.135 68.1936 72.3304 68.4851 72.5766 68.7303C72.8228 68.9756 73.115 69.1698 73.4364 69.3019C73.7579 69.434 74.1023 69.5014 74.4498 69.5001Z" fill="#2AD168"/>
<path id="Vector_10" d="M50.5101 69.5C51.9681 69.5 53.1501 68.318 53.1501 66.86C53.1501 65.402 51.9681 64.22 50.5101 64.22C49.0521 64.22 47.8701 65.402 47.8701 66.86C47.8701 68.318 49.0521 69.5 50.5101 69.5Z" fill="#2AD168"/>
<path id="Vector_11" d="M27.593 69.1932C28.9416 68.6387 29.5853 67.0961 29.0308 65.7476C28.4764 64.3991 26.9337 63.7554 25.5852 64.3098C24.2367 64.8642 23.593 66.4069 24.1475 67.7554C24.7019 69.1039 26.2445 69.7476 27.593 69.1932Z" fill="#2AD168"/>
<path id="Vector_12" d="M2.65004 69.5001C3.17459 69.5 3.68731 69.3444 4.12331 69.0527C4.55931 68.7611 4.89899 68.3466 5.09926 67.8618C5.29954 67.377 5.3515 66.8437 5.24843 66.3293C5.14537 65.815 4.89189 65.3429 4.52028 64.9726C4.14867 64.6024 3.67561 64.3509 3.16091 64.2497C2.6462 64.1486 2.11309 64.2025 1.62905 64.4047C1.145 64.6068 0.731771 64.948 0.441791 65.3851C0.151812 65.8222 -0.00196055 66.3355 1.88721e-05 66.86C1.63788e-05 67.2076 0.0686259 67.5517 0.201923 67.8726C0.33522 68.1936 0.530667 68.4851 0.776874 68.7303C1.02308 68.9756 1.31528 69.1698 1.63674 69.3019C1.95819 69.434 2.30251 69.5014 2.65004 69.5001Z" fill="#2AD168"/>
<path id="Vector_13" d="M122.31 48.09C123.768 48.09 124.95 46.908 124.95 45.45C124.95 43.992 123.768 42.81 122.31 42.81C120.852 42.81 119.67 43.992 119.67 45.45C119.67 46.908 120.852 48.09 122.31 48.09Z" fill="#2AD168"/>
<path id="Vector_14" d="M98.3802 48.1C98.9048 48.102 99.4181 47.9483 99.8552 47.6583C100.292 47.3683 100.634 46.9551 100.836 46.4711C101.038 45.987 101.092 45.4539 100.991 44.9392C100.889 44.4245 100.638 43.9514 100.268 43.5798C99.8975 43.2082 99.4253 42.9547 98.911 42.8517C98.3967 42.7486 97.8633 42.8005 97.3785 43.0008C96.8937 43.2011 96.4793 43.5407 96.1876 43.9767C95.896 44.4127 95.7402 44.9255 95.7402 45.45C95.7402 46.1511 96.0181 46.8236 96.5129 47.3203C97.0078 47.817 97.6792 48.0974 98.3802 48.1Z" fill="#2AD168"/>
<path id="Vector_15" d="M74.4498 48.1C74.9739 48.1 75.4863 47.9446 75.9221 47.6534C76.3579 47.3622 76.6975 46.9484 76.8981 46.4642C77.0986 45.9799 77.1511 45.4471 77.0488 44.933C76.9466 44.419 76.6942 43.9468 76.3236 43.5762C75.953 43.2055 75.4808 42.9532 74.9668 42.8509C74.4527 42.7487 73.9199 42.8012 73.4357 43.0018C72.9514 43.2023 72.5376 43.542 72.2465 43.9778C71.9553 44.4136 71.7998 44.9259 71.7998 45.45C71.7998 45.798 71.8683 46.1426 72.0015 46.4642C72.1346 46.7857 72.3299 47.0778 72.5759 47.3238C72.822 47.5699 73.1142 47.7651 73.4357 47.8983C73.7572 48.0315 74.1018 48.1 74.4498 48.1Z" fill="#2AD168"/>
<path id="Vector_16" d="M50.5101 48.09C51.9681 48.09 53.1501 46.908 53.1501 45.45C53.1501 43.992 51.9681 42.81 50.5101 42.81C49.0521 42.81 47.8701 43.992 47.8701 45.45C47.8701 46.908 49.0521 48.09 50.5101 48.09Z" fill="#2AD168"/>
<path id="Vector_17" d="M27.5911 47.7915C28.9396 47.237 29.5833 45.6944 29.0289 44.3459C28.4744 42.9974 26.9318 42.3537 25.5833 42.9081C24.2348 43.4626 23.591 45.0052 24.1455 46.3537C24.6999 47.7022 26.2426 48.3459 27.5911 47.7915Z" fill="#2AD168"/>
<path id="Vector_18" d="M2.65002 48.1C3.17414 48.1 3.68652 47.9446 4.12231 47.6534C4.5581 47.3622 4.89769 46.9484 5.09827 46.4642C5.29884 45.9799 5.3514 45.4471 5.24915 44.933C5.14689 44.419 4.89454 43.9468 4.52393 43.5762C4.15332 43.2055 3.68104 42.9532 3.16699 42.8509C2.65294 42.7487 2.12021 42.8012 1.63599 43.0018C1.15176 43.2023 0.737841 43.542 0.446655 43.9778C0.15547 44.4136 0 44.9259 0 45.45C0 46.1528 0.279274 46.8269 0.776245 47.3238C1.27322 47.8208 1.9472 48.1 2.65002 48.1Z" fill="#2AD168"/>
<path id="Vector_19" d="M122.31 26.69C123.768 26.69 124.95 25.508 124.95 24.05C124.95 22.592 123.768 21.41 122.31 21.41C120.852 21.41 119.67 22.592 119.67 24.05C119.67 25.508 120.852 26.69 122.31 26.69Z" fill="#2AD168"/>
<path id="Vector_20" d="M98.3803 26.66C98.9052 26.662 99.419 26.508 99.8563 26.2176C100.294 25.9272 100.635 25.5134 100.837 25.0287C101.038 24.5441 101.092 24.0105 100.99 23.4955C100.888 22.9805 100.635 22.5074 100.264 22.1362C99.893 21.765 99.4198 21.5124 98.9048 21.4105C98.3898 21.3085 97.8562 21.3618 97.3716 21.5636C96.887 21.7655 96.4732 22.1067 96.1828 22.544C95.8923 22.9813 95.7383 23.495 95.7403 24.02C95.7429 24.7194 96.022 25.3894 96.5165 25.8839C97.011 26.3784 97.6809 26.6574 98.3803 26.66Z" fill="#2AD168"/>
<path id="Vector_21" d="M74.4498 26.66C74.9744 26.66 75.4871 26.5043 75.9231 26.2127C76.3591 25.9211 76.6988 25.5066 76.8991 25.0218C77.0993 24.537 77.1512 24.0037 77.0481 23.4894C76.9451 22.975 76.6917 22.5029 76.3201 22.1327C75.9485 21.7625 75.4753 21.5108 74.9606 21.4097C74.4459 21.3086 73.9128 21.3625 73.4287 21.5646C72.9447 21.7667 72.5316 22.1079 72.2416 22.545C71.9516 22.9821 71.7978 23.4955 71.7998 24.02C71.7998 24.3675 71.8684 24.7117 72.0017 25.0326C72.135 25.3536 72.3304 25.645 72.5766 25.8903C72.8228 26.1356 73.115 26.3299 73.4364 26.462C73.7579 26.594 74.1023 26.6613 74.4498 26.66Z" fill="#2AD168"/>
<path id="Vector_22" d="M50.5101 26.69C51.9681 26.69 53.1501 25.508 53.1501 24.05C53.1501 22.592 51.9681 21.41 50.5101 21.41C49.0521 21.41 47.8701 22.592 47.8701 24.05C47.8701 25.508 49.0521 26.69 50.5101 26.69Z" fill="#2AD168"/>
<path id="Vector_23" d="M27.594 26.3891C28.9425 25.8347 29.5863 24.292 29.0318 22.9435C28.4774 21.595 26.9347 20.9513 25.5862 21.5057C24.2377 22.0602 23.594 23.6028 24.1484 24.9513C24.7029 26.2998 26.2455 26.9436 27.594 26.3891Z" fill="#2AD168"/>
<path id="Vector_24" d="M2.65004 26.66C3.17459 26.66 3.68731 26.5043 4.12331 26.2127C4.55931 25.9211 4.89899 25.5066 5.09926 25.0218C5.29954 24.537 5.3515 24.0037 5.24843 23.4894C5.14537 22.975 4.89189 22.5029 4.52028 22.1327C4.14867 21.7625 3.67561 21.5108 3.16091 21.4097C2.6462 21.3086 2.11309 21.3625 1.62905 21.5646C1.145 21.7667 0.731771 22.1079 0.441791 22.545C0.151812 22.9821 -0.00196055 23.4955 1.88721e-05 24.02C1.63788e-05 24.3675 0.0686259 24.7117 0.201923 25.0326C0.33522 25.3536 0.530667 25.645 0.776874 25.8903C1.02308 26.1356 1.31528 26.3299 1.63674 26.462C1.95819 26.594 2.30251 26.6613 2.65004 26.66Z" fill="#2AD168"/>
<path id="Vector_25" d="M122.31 5.28C123.768 5.28 124.95 4.09803 124.95 2.64C124.95 1.18197 123.768 0 122.31 0C120.852 0 119.67 1.18197 119.67 2.64C119.67 4.09803 120.852 5.28 122.31 5.28Z" fill="#2AD168"/>
<path id="Vector_26" d="M98.3802 5.29003C98.9048 5.29201 99.4181 5.1383 99.8552 4.84832C100.292 4.55834 100.634 4.14511 100.836 3.66106C101.038 3.17701 101.092 2.64391 100.991 2.1292C100.889 1.61449 100.638 1.14137 100.268 0.769764C99.8975 0.398154 99.4253 0.14474 98.911 0.0416758C98.3967 -0.0613881 97.8633 -0.00949031 97.3785 0.190785C96.8937 0.39106 96.4793 0.730733 96.1876 1.16674C95.896 1.60274 95.7402 2.11546 95.7402 2.64C95.7402 3.3411 96.0181 4.01362 96.5129 4.5103C97.0078 5.00699 97.6792 5.28738 98.3802 5.29003Z" fill="#2AD168"/>
<path id="Vector_27" d="M74.4498 5.29002C74.9739 5.29002 75.4863 5.13461 75.9221 4.84343C76.3579 4.55224 76.6975 4.13838 76.8981 3.65416C77.0986 3.16993 77.1511 2.63708 77.0488 2.12303C76.9466 1.60898 76.6942 1.13677 76.3236 0.766156C75.953 0.395547 75.4808 0.143187 74.9668 0.0409364C74.4527 -0.0613144 73.9199 -0.00881796 73.4357 0.191754C72.9514 0.392326 72.5376 0.731977 72.2465 1.16777C71.9553 1.60356 71.7998 2.11588 71.7998 2.64C71.7998 2.988 71.8683 3.33264 72.0015 3.65416C72.1346 3.97567 72.3299 4.26776 72.5759 4.51384C72.822 4.75991 73.1142 4.95512 73.4357 5.0883C73.7572 5.22147 74.1018 5.29002 74.4498 5.29002Z" fill="#2AD168"/>
<path id="Vector_28" d="M50.5101 5.28C51.9681 5.28 53.1501 4.09803 53.1501 2.64C53.1501 1.18197 51.9681 0 50.5101 0C49.0521 0 47.8701 1.18197 47.8701 2.64C47.8701 4.09803 49.0521 5.28 50.5101 5.28Z" fill="#2AD168"/>
<path id="Vector_29" d="M27.592 4.97745C28.9406 4.42301 29.5843 2.88036 29.0298 1.53186C28.4754 0.183354 26.9328 -0.460315 25.5843 0.0941215C24.2358 0.648558 23.592 2.19116 24.1465 3.53966C24.7009 4.88816 26.2435 5.53189 27.592 4.97745Z" fill="#2AD168"/>
<path id="Vector_30" d="M2.65002 5.29002C3.17414 5.29002 3.68652 5.13461 4.12231 4.84343C4.5581 4.55224 4.89769 4.13838 5.09827 3.65416C5.29884 3.16993 5.3514 2.63708 5.24915 2.12303C5.14689 1.60898 4.89454 1.13677 4.52393 0.766156C4.15332 0.395547 3.68104 0.143187 3.16699 0.0409364C2.65294 -0.0613144 2.12021 -0.00881796 1.63599 0.191754C1.15176 0.392326 0.737841 0.731977 0.446655 1.16777C0.15547 1.60356 0 2.11588 0 2.64C0 3.34282 0.279274 4.01687 0.776245 4.51384C1.27322 5.01081 1.9472 5.29002 2.65002 5.29002Z" fill="#2AD168"/>
</g>
<defs>
<clipPath id="clip0_2542_2469">
<rect width="148.89" height="90.91" fill="white"/>
</clipPath>
</defs>
</svg>
