<svg width="97" height="73" viewBox="0 0 97 73" fill="none" xmlns="http://www.w3.org/2000/svg">
<g id="Group 89">
<g id="Group">
<path id="Vector" d="M55.9324 61.5977C60.477 61.5977 65.4918 61.3243 70.7417 61.0119C74.3069 60.8166 78.0288 60.6213 81.6723 60.5042C82.4167 60.4651 83.0044 59.8402 83.0044 59.0982C82.9652 58.3561 82.3384 57.7312 81.594 57.7703C77.9113 57.8875 74.1893 58.0827 70.6241 58.3171C55.1096 59.1763 40.4178 59.9965 38.9291 53.1227C38.7332 52.2244 38.4981 51.0918 38.2239 49.803C33.7576 28.7131 28.8211 6.6859 26.157 2.97564C21.8474 -3.07794 3.1203 1.88208 1.00468 2.46791C0.2603 2.66319 -0.17067 3.40525 0.0643997 4.1473C0.260292 4.88935 1.00469 5.31896 1.74908 5.08463C9.0362 3.0928 21.534 1.14003 23.963 4.5769C26.6271 8.32621 33.1307 38.8675 35.5598 50.3888C35.834 51.6777 36.0691 52.8103 36.265 53.7085C37.597 60.0746 45.3935 61.5977 55.9324 61.5977Z" fill="#202D37"/>
</g>
<g id="Group_2">
<path id="Vector_2" d="M69.0298 68.5147C66.8419 66.3337 66.8419 62.7975 69.0298 60.6165C71.2177 58.4355 74.7649 58.4355 76.9528 60.6165C79.1407 62.7975 79.1407 66.3336 76.9528 68.5147C74.7649 70.6957 71.2177 70.6957 69.0298 68.5147Z" fill="#202D37"/>
<path id="Vector_3" d="M72.9744 70.7764C76.3829 70.7764 79.1646 68.0034 79.1646 64.6056C79.1646 61.2078 76.3829 58.4349 72.9744 58.4349C69.5659 58.4349 66.7843 61.2078 66.7843 64.6056C66.7843 68.0034 69.5659 70.7764 72.9744 70.7764ZM72.9744 59.5675C75.7561 59.5675 77.9892 61.8327 77.9892 64.5666C77.9892 67.3395 75.7169 69.5657 72.9744 69.5657C70.1928 69.5657 67.9596 67.3004 67.9596 64.5666C67.9596 61.8327 70.1928 59.5675 72.9744 59.5675Z" fill="#202D37"/>
</g>
<g id="Group_3">
<path id="Vector_4" d="M48.4888 70.6975C45.3947 70.6975 42.8864 68.1971 42.8864 65.1126C42.8864 62.0282 45.3947 59.5277 48.4888 59.5277C51.583 59.5277 54.0913 62.0282 54.0913 65.1126C54.0913 68.1971 51.583 70.6975 48.4888 70.6975Z" fill="#202D37"/>
<path id="Vector_5" d="M48.4896 71.2835C51.898 71.2835 54.6797 68.5105 54.6797 65.1127C54.6797 61.7149 51.898 58.942 48.4896 58.942C45.0811 58.942 42.2994 61.7149 42.2994 65.1127C42.2994 68.5105 45.0811 71.2835 48.4896 71.2835ZM48.4896 60.0746C51.2712 60.0746 53.5043 62.3398 53.5043 65.0737C53.5043 67.8466 51.232 70.0728 48.4896 70.0728C45.7471 70.0728 43.4748 67.8076 43.4748 65.0737C43.4748 62.3398 45.7471 60.0746 48.4896 60.0746Z" fill="#202D37"/>
</g>
<g id="Group_4">
<path id="Vector_6" d="M82.7298 44.9212C83.2392 44.9212 83.7485 44.9212 84.2186 44.9212C84.963 44.9212 85.5898 44.2963 85.5898 43.5543C85.5898 42.8122 84.963 42.1873 84.2186 42.1873C71.6816 42.2654 35.677 41.3671 35.3244 41.3281C34.58 41.3281 33.9531 41.9139 33.914 42.656C33.914 43.398 34.5017 44.0229 35.246 44.062C35.5986 44.101 69.0175 44.9212 82.7298 44.9212Z" fill="#202D37"/>
</g>
<g id="Group_5">
<path id="Vector_7" d="M28.7434 15.9808C31.0549 15.9808 84.9639 15.5902 95.2678 14.6138C96.0122 14.5357 96.5606 13.8718 96.5215 13.1297C96.4431 12.3877 95.7771 11.8409 95.0327 11.88C84.8856 12.8563 29.3311 13.2469 28.7434 13.2469C27.999 13.2469 27.3722 13.8718 27.3722 14.6138C27.3722 15.3559 27.9598 15.9808 28.7434 15.9808Z" fill="#202D37"/>
</g>
<g id="Group_6">
<path id="Vector_8" d="M81.4758 44.4913C81.8676 44.4913 82.2986 44.2961 82.5336 43.9836C85.6287 40.1171 93.1509 23.1671 93.1509 13.4814C93.1509 12.7393 92.524 12.1144 91.7796 12.1144C91.0353 12.1144 90.4084 12.7393 90.4084 13.4814C90.4084 22.3079 83.1213 38.8283 80.3788 42.3042C79.9087 42.8901 80.0262 43.7493 80.6139 44.2179C80.849 44.4132 81.1624 44.4913 81.4758 44.4913Z" fill="#202D37"/>
</g>
<g id="Group_7">
<path id="Vector_9" d="M60.007 29.885C68.3127 29.885 77.9505 29.885 88.2152 29.885C88.9596 29.885 89.5864 29.2601 89.5864 28.518C89.5864 27.776 88.9596 27.1511 88.2152 27.1511C57.6171 27.1901 32.3864 27.1511 32.1122 27.1511C31.3678 27.1511 30.741 27.776 30.741 28.518C30.741 29.2601 31.3678 29.885 32.1122 29.885C32.3081 29.885 43.513 29.885 60.007 29.885Z" fill="#202D37"/>
</g>
<g id="Group_8">
<path id="Vector_10" d="M69.5267 44.4915C70.1536 44.4915 70.7413 44.0228 70.8588 43.3979C72.7002 33.6341 71.7207 14.8485 71.6815 14.0283C71.6424 13.2863 71.0155 12.7004 70.232 12.7395C69.4876 12.7785 68.8999 13.4425 68.9391 14.1845C68.9391 14.3798 69.9577 33.4388 68.1555 42.8902C67.9988 43.6323 68.5081 44.3353 69.2525 44.4915C69.37 44.4915 69.4484 44.4915 69.5267 44.4915Z" fill="#202D37"/>
</g>
<g id="Group_9">
<path id="Vector_11" d="M49.742 44.062C50.4472 44.062 51.074 43.5152 51.1132 42.8122C51.1132 42.695 52.0535 29.4162 50.3296 14.2627C50.2513 13.5207 49.5461 12.9739 48.8017 13.052C48.0573 13.1301 47.5088 13.8331 47.5872 14.5752C49.311 29.4553 48.3707 42.4998 48.3707 42.6169C48.3315 43.359 48.88 44.0229 49.6244 44.062C49.6636 44.062 49.7028 44.062 49.742 44.062Z" fill="#202D37"/>
</g>
</g>
</svg>
