<svg width="175" height="151" viewBox="0 0 175 151" fill="none" xmlns="http://www.w3.org/2000/svg">
<g id="Group 88">
<g id="Group">
<path id="Vector" d="M128.153 116.9C136.377 119.913 139.046 118.12 142.153 114.059C146.086 108.894 150.181 102.211 159.651 85.4364C159.878 85.0082 160.09 84.6169 160.339 84.2396L161.372 82.4443C163.579 78.5222 165.332 75.4564 166.511 72.905C169.938 65.5086 168.691 62.1113 160.964 57.8319C138.966 45.6402 108.419 31.2975 96.8871 25.88C95.7485 25.3351 94.7854 24.897 94.0518 24.5431C87.6478 21.5155 83.0305 22.3813 78.5305 27.424C76.5797 29.6075 74.6042 32.6769 72.379 36.8481L72.1833 37.2026C71.8075 37.8747 72.1136 38.7113 72.8089 39.0513C73.5042 39.3912 74.3908 39.0767 74.7665 38.4045L74.9623 38.0501C77.0547 34.0859 78.9514 31.2007 80.7312 29.2103C84.3605 25.1698 87.4769 24.6066 92.7581 27.0525C93.4917 27.4064 94.4165 27.8304 95.5934 28.3894C107.087 33.7929 137.611 48.0847 159.494 60.2343C166 63.8531 166.724 65.7807 163.903 71.8645C162.771 74.3053 161.019 77.3711 158.843 81.2196L157.81 83.0148C157.599 83.4061 157.333 83.8203 157.122 84.2116C147.753 100.853 143.689 107.462 139.858 112.494C136.766 116.518 135.061 118.749 111.476 105.507C110.797 105.131 109.903 105.357 109.49 106.016C109.076 106.674 109.289 107.519 109.969 107.896C118.07 112.44 123.868 115.331 128.153 116.9Z" fill="#202D37"/>
</g>
<g id="Group_2">
<path id="Vector_2" d="M73.1887 37.4275C87.3978 44.9473 132.692 68.8773 159.587 83.3125C162.075 78.9249 164.004 75.5388 165.269 72.7708C145.606 62.8969 95.1518 36.5487 79.1586 28.1992C77.2659 30.3481 75.3258 33.3419 73.1887 37.4275Z" fill="#202D37"/>
<path id="Vector_3" d="M159.345 83.8604C159.461 83.9029 159.63 83.9223 159.739 83.8761C159.886 83.8441 160.026 83.7234 160.128 83.5884L160.672 82.6247C162.876 78.695 164.655 75.5569 165.826 73.0136C165.953 72.7155 165.817 72.4068 165.563 72.2703C145.065 61.9624 90.2532 33.3273 79.5027 27.7301C79.2492 27.5936 78.9164 27.6435 78.7285 27.876C76.8362 30.0241 74.8261 33.0771 72.6576 37.2356C72.4923 37.5196 72.6123 37.8656 72.9043 38.0162L73.2348 38.181C87.9106 45.9567 132.615 69.5762 159.291 83.8835C159.268 83.832 159.307 83.8462 159.345 83.8604ZM164.427 73.0588C163.266 75.4761 161.62 78.4047 159.526 82.0735L159.298 82.5066C132.644 68.2507 88.7935 45.0318 74.0022 37.2136C75.9172 33.6514 77.6375 30.9658 79.3194 28.9988C90.9844 35.0622 143.829 62.6711 164.427 73.0588Z" fill="#202D37"/>
</g>
<g id="Group_3">
<path id="Vector_4" d="M139.372 93.602C140.444 93.9947 141.356 94.2436 142.054 94.3714C142.506 94.4519 143.896 94.6197 144.774 93.7042C145.598 92.8115 147.094 90.9701 148.265 89.2659C150.372 86.1983 150.577 84.9934 150.233 84.1418C149.221 81.638 138.853 76.4737 134.768 75.3609C133.058 74.9053 132.036 74.9147 131.277 75.4473C129.419 76.6865 124.737 82.5656 126.012 85.5926C126.906 87.5415 134.509 91.8205 139.372 93.602ZM142.851 91.6769C140.36 91.7029 129.805 86.0435 128.73 84.4126C128.411 83.3994 131.038 79.1144 132.775 77.7453C133.612 77.7536 136.416 78.6529 140.538 80.7176C144.467 82.7121 146.848 84.3949 147.456 85.0444C147.098 86.1932 144.632 89.6843 142.851 91.6769ZM148.929 84.6027L147.593 85.1374L148.929 84.6027Z" fill="#202D37"/>
</g>
<g id="Group_4">
<path id="Vector_5" d="M121.562 76.2893C101.301 58.3859 73.3411 38.0033 65.6734 32.5529C58.0214 27.0656 54.2774 22.3706 45.391 31.2598C36.5428 40.163 22.6035 55.5958 17.8656 59.9538C13.1276 64.3117 8.98806 67.9941 21.0477 77.8655C33.1073 87.7369 59.8207 108.345 70.283 118.228C80.7452 128.111 84.3429 131.388 97.8413 118.436C111.34 105.484 118.046 97.9691 123.837 91.3548C129.697 84.681 125.929 80.1473 121.562 76.2893Z" fill="#FBD931"/>
</g>
<g id="Group_5">
<path id="Vector_6" d="M52.2065 65.777C48.1602 63.1241 47.2444 57.8121 50.1612 53.9124C53.0779 50.0127 58.7226 49.002 62.7689 51.6549C66.8153 54.3079 67.731 59.6199 64.8142 63.5196C61.8975 67.4193 56.2528 68.43 52.2065 65.777Z" fill="#FFFEF2"/>
<path id="Vector_7" d="M53.4922 68.0213C58.7973 69.964 64.9238 67.4039 67.1236 62.2581C69.3078 57.1491 66.7864 51.3797 61.4431 49.423C56.0999 47.4664 50.0115 50.0404 47.8116 55.1862C45.6118 60.3319 48.1871 66.0786 53.4922 68.0213ZM60.3432 51.9959C64.198 53.4075 66.0391 57.5675 64.452 61.2798C62.865 64.9921 58.4469 66.86 54.5921 65.4484C50.7373 64.0368 48.8962 59.8768 50.4832 56.1645C52.0703 52.4522 56.4884 50.5843 60.3432 51.9959Z" fill="#202D37"/>
</g>
<g id="Group_6">
<path id="Vector_8" d="M43.0798 60.5655C43.1943 60.6074 43.3088 60.6493 43.4233 60.6912C48.807 62.4502 54.8437 59.6871 56.837 54.5082C58.8304 49.3293 56.0934 43.651 50.7097 41.8921C45.3261 40.1332 39.2893 42.8962 37.296 48.0751C35.3117 53.1298 37.9274 58.6787 43.0798 60.5655ZM54.1497 53.5667C53.4561 55.3956 52.0463 56.8348 50.2211 57.6968C48.3959 58.5588 46.326 58.651 44.4626 58.0536C42.5611 57.4423 41.0883 56.1378 40.2328 54.4218C39.3774 52.7057 39.3369 50.7354 40.0148 48.9432C41.4873 45.1889 45.8381 43.1688 49.74 44.4702C53.6195 45.7207 55.6065 49.8492 54.1497 53.5667Z" fill="#202D37"/>
</g>
<g id="Group_7">
<path id="Vector_9" d="M40.4858 72.8865C41.0232 73.0837 41.7027 72.9475 42.1316 72.4623C42.6463 71.8801 42.617 71.0126 41.9983 70.4857C36.0695 65.654 31.3012 61.8479 31.2628 61.8338C30.6668 61.3581 29.7412 61.4468 29.2264 62.029C28.7117 62.6112 28.7795 63.4928 29.3755 63.9686C29.4139 63.9826 34.1822 67.7887 40.0727 72.6063C40.1946 72.7368 40.3323 72.8301 40.4858 72.8865Z" fill="#202D37"/>
</g>
<g id="Group_8">
<path id="Vector_10" d="M55.8658 85.5175C56.4027 85.7144 57.0276 85.6013 57.4405 85.1538C57.9932 84.5864 58.0022 83.734 57.4381 83.1849C55.8521 81.7047 54.3494 80.3407 53.0228 79.084C51.2382 77.4455 49.2167 75.6344 47.0733 73.6932C46.4935 73.181 45.5843 73.2326 45.0316 73.8C44.4789 74.3674 44.5082 75.2339 45.0881 75.746C47.2472 77.6503 49.2146 79.4843 50.9992 81.1228C52.3416 82.3425 53.8285 83.7435 55.4145 85.2237C55.5364 85.3539 55.7123 85.4612 55.8658 85.5175Z" fill="#202D37"/>
</g>
<g id="Group_9">
<path id="Vector_11" d="M71.1382 99.7013C71.6751 99.8982 72.2615 99.7711 72.6969 99.3747C73.2879 98.8215 73.2968 97.9694 72.7329 97.4204C69.6537 94.4519 66.1391 91.1527 62.5862 87.8395C62.0222 87.2905 61.1132 87.3421 60.5222 87.8953C59.9312 88.4485 59.9606 89.3147 60.5245 89.8637C64.0775 93.1769 67.5379 96.499 70.6329 99.4305C70.8088 99.5378 70.9848 99.6451 71.1382 99.7013Z" fill="#202D37"/>
</g>
<g id="Group_10">
<path id="Vector_12" d="M83.4867 111.701C83.985 111.883 84.5555 111.793 84.9749 111.434C85.5883 110.932 85.6514 110.058 85.1034 109.472C83.3377 107.585 80.2303 104.479 75.8646 100.271C75.3008 99.7226 74.4079 99.7372 73.8171 100.29C73.2263 100.843 73.2174 101.695 73.7811 102.243C78.1243 106.4 81.155 109.478 82.9365 111.328C83.1191 111.523 83.295 111.631 83.4867 111.701Z" fill="#202D37"/>
</g>
</g>
</svg>
