<svg width="80" height="69" viewBox="0 0 80 69" fill="none" xmlns="http://www.w3.org/2000/svg">
<g id="Group">
<g id="Group_2">
<path id="Vector" d="M78.0513 15.8174C78.7957 15.8174 79.4226 15.2316 79.4226 14.4896C79.4226 14.4114 79.4226 14.2162 79.4617 13.9818C80.2845 4.17894 79.3442 1.75751 77.6596 1.09357C75.4656 0.234351 67.63 0.0390554 66.0629 0C66.0629 0 66.0629 0 66.0237 0C65.2793 0 64.6525 0.58584 64.6525 1.32789C64.6525 2.06994 65.2401 2.69482 65.9845 2.73387C69.2754 2.81199 74.8779 3.08539 76.4842 3.55405C76.7193 3.94461 77.3461 5.81926 76.6801 13.7084C76.6409 14.1771 76.6409 14.2943 76.6409 14.4114C76.6801 15.1925 77.307 15.8174 78.0513 15.8174Z" fill="#FBD931"/>
</g>
<g id="Group_3">
<path id="Vector_2" d="M1.73203 14.4896C1.77121 14.4896 1.81041 14.4896 1.84959 14.4896C2.59397 14.4114 3.18162 13.7475 3.10327 13.0055C2.8682 10.2716 2.63315 5.46775 3.02493 3.98365C3.80849 3.31971 7.96136 2.73387 12.0751 2.73387C12.8194 2.73387 13.4463 2.10899 13.4463 1.36694C13.4463 0.624886 12.8194 0 12.0751 0C7.1778 0 1.22275 0.546784 0.439187 3.08538C-0.266019 5.35059 0.282484 11.9509 0.400019 13.2398C0.439197 13.9818 1.02683 14.4896 1.73203 14.4896Z" fill="#FBD931"/>
</g>
<g id="Group_4">
<path id="Vector_3" d="M6.74729 68.0345C8.86291 68.0345 10.8218 67.7611 11.4878 67.6439C12.2322 67.5267 12.7415 66.8237 12.624 66.0817C12.5065 65.3396 11.8013 64.8319 11.0569 64.9491C6.98236 65.574 3.22127 65.2615 2.82949 64.5585C2.6336 61.5513 2.82949 55.9273 2.82949 55.8492C2.86866 55.1071 2.28098 54.4432 1.49742 54.4432C0.753038 54.4432 0.0870209 54.99 0.0870209 55.7711C0.0870209 56.0054 -0.10887 61.5903 0.0870209 64.7538C0.126199 65.5349 0.517999 66.2379 1.18403 66.7847C2.39855 67.761 4.63168 68.0345 6.74729 68.0345Z" fill="#FBD931"/>
</g>
<g id="Group_5">
<path id="Vector_4" d="M67.2384 68.8156C68.6488 68.8156 73.4677 68.7375 75.1132 67.8392C75.7008 67.5267 77.3071 66.6675 77.3071 55.8101C77.3071 55.0681 76.6803 54.4432 75.9359 54.4432C75.1915 54.4432 74.5647 55.0681 74.5647 55.8101C74.5647 59.7156 74.2121 64.4023 73.6636 65.4959C72.7233 65.8474 69.7066 66.0426 67.2384 66.0426C66.494 66.0426 65.8672 66.6675 65.8672 67.4095C65.8672 68.1516 66.4548 68.8156 67.2384 68.8156Z" fill="#FBD931"/>
</g>
<g id="Group_6">
<path id="Vector_5" d="M55.1714 33.7829C58.5015 33.7829 62.1451 33.7048 63.9865 33.4314C64.6525 33.3142 65.7887 33.158 66.0629 32.1035C66.7681 29.4868 66.8465 20.426 62.8111 15.3488C60.2254 12.1072 54.0353 11.3261 44.3583 12.9664C44.1232 13.0055 43.9273 13.0445 43.8489 13.0445C43.3396 13.0836 42.9087 13.357 42.6736 13.8256C42.5169 14.1381 42.1251 14.8801 42.1643 23.1989C42.2035 31.5568 42.5953 32.1426 42.7911 32.455C43.2221 33.1189 43.4964 33.5876 52.5073 33.7439C53.3301 33.7829 54.2311 33.7829 55.1714 33.7829ZM63.5555 30.7366C60.578 31.2053 48.3153 31.1662 45.1418 30.6975C44.8676 27.9636 44.8284 18.4732 45.0635 15.6612C56.1509 13.7866 59.5985 15.7393 60.6563 17.0672C63.7906 20.9727 63.9473 28.0808 63.5555 30.7366ZM43.9273 13.0836H43.8882H43.9273Z" fill="#202D37"/>
</g>
<g id="Group_7">
<path id="Vector_6" d="M51.6059 28.2761H53.9174C55.2886 28.2761 56.4248 27.1435 56.4248 25.7766V24.1363C56.4248 22.7693 55.2886 21.6367 53.9174 21.6367H51.6059C50.2346 21.6367 49.0985 22.7693 49.0985 24.1363V25.7766C49.0985 27.1826 50.2346 28.2761 51.6059 28.2761Z" fill="#202D37"/>
<path id="Vector_7" d="M51.6061 28.8618H53.9176C55.6415 28.8618 57.0127 27.4948 57.0127 25.7764V24.1361C57.0127 22.4177 55.6415 21.0507 53.9176 21.0507H51.6061C49.8823 21.0507 48.511 22.4177 48.511 24.1361V25.7764C48.511 27.4948 49.9214 28.8618 51.6061 28.8618ZM53.9176 22.2614C54.9754 22.2614 55.8374 23.1207 55.8374 24.1751V25.8155C55.8374 26.8699 54.9754 27.7292 53.9176 27.7292H51.6061C50.5483 27.7292 49.6864 26.8699 49.6864 25.8155V24.1751C49.6864 23.1207 50.5483 22.2614 51.6061 22.2614H53.9176Z" fill="#202D37"/>
</g>
<g id="Group_8">
<path id="Vector_8" d="M51.6059 53.1152H53.9174C55.2886 53.1152 56.4248 51.9826 56.4248 50.6157V48.9754C56.4248 47.6084 55.2886 46.4758 53.9174 46.4758H51.6059C50.2346 46.4758 49.0985 47.6084 49.0985 48.9754V50.6157C49.0985 51.9826 50.2346 53.1152 51.6059 53.1152Z" fill="#202D37"/>
<path id="Vector_9" d="M51.6061 53.7011H53.9176C55.6415 53.7011 57.0127 52.3342 57.0127 50.6158V48.9755C57.0127 47.257 55.6415 45.8901 53.9176 45.8901H51.6061C49.8823 45.8901 48.511 47.257 48.511 48.9755V50.6158C48.511 52.3342 49.9214 53.7011 51.6061 53.7011ZM53.9176 47.0617C54.9754 47.0617 55.8374 47.921 55.8374 48.9755V50.6158C55.8374 51.6703 54.9754 52.5295 53.9176 52.5295H51.6061C50.5483 52.5295 49.6864 51.6703 49.6864 50.6158V48.9755C49.6864 47.921 50.5483 47.0617 51.6061 47.0617H53.9176Z" fill="#202D37"/>
</g>
<g id="Group_9">
<path id="Vector_10" d="M25.083 27.0653H27.3944C28.7657 27.0653 29.9019 25.9327 29.9019 24.5658V22.9254C29.9019 21.5585 28.7657 20.4259 27.3944 20.4259H25.083C23.7117 20.4259 22.5756 21.5585 22.5756 22.9254V24.5658C22.5756 25.9327 23.7117 27.0653 25.083 27.0653Z" fill="#202D37"/>
<path id="Vector_11" d="M25.0825 27.6513H27.3939C29.1178 27.6513 30.489 26.2843 30.489 24.5659V22.9256C30.489 21.2071 29.1178 19.8402 27.3939 19.8402H25.0825C23.3586 19.8402 21.9874 21.2071 21.9874 22.9256V24.5659C21.9874 26.2453 23.3978 27.6513 25.0825 27.6513ZM27.3939 21.0119C28.4517 21.0119 29.3137 21.8711 29.3137 22.9256V24.5659C29.3137 25.6204 28.4517 26.4796 27.3939 26.4796H25.0825C24.0247 26.4796 23.1627 25.6204 23.1627 24.5659V22.9256C23.1627 21.8711 24.0247 21.0119 25.0825 21.0119H27.3939Z" fill="#202D37"/>
</g>
<g id="Group_10">
<path id="Vector_12" d="M25.083 53.1152H27.3944C28.7657 53.1152 29.9019 51.9826 29.9019 50.6157V48.9754C29.9019 47.6084 28.7657 46.4758 27.3944 46.4758H25.083C23.7117 46.4758 22.5756 47.6084 22.5756 48.9754V50.6157C22.5756 51.9826 23.7117 53.1152 25.083 53.1152Z" fill="#202D37"/>
<path id="Vector_13" d="M25.0825 53.7011H27.3939C29.1178 53.7011 30.489 52.3342 30.489 50.6158V48.9755C30.489 47.257 29.1178 45.8901 27.3939 45.8901H25.0825C23.3586 45.8901 21.9874 47.257 21.9874 48.9755V50.6158C21.9874 52.3342 23.3978 53.7011 25.0825 53.7011ZM27.3939 47.0617C28.4517 47.0617 29.3137 47.921 29.3137 48.9755V50.6158C29.3137 51.6703 28.4517 52.5295 27.3939 52.5295H25.0825C24.0247 52.5295 23.1627 51.6703 23.1627 50.6158V48.9755C23.1627 47.921 24.0247 47.0617 25.0825 47.0617H27.3939Z" fill="#202D37"/>
</g>
<g id="Group_11">
<path id="Vector_14" d="M26.2185 34.2905C29.5486 34.2905 33.1922 34.1343 34.916 33.7437C36.4831 33.3923 36.7966 32.5331 36.7574 31.9082C36.7574 31.5957 36.7182 30.6193 36.7182 29.3696C36.4831 13.3959 36.1306 13.0444 35.4645 12.4586C34.0541 11.2088 24.9648 11.0526 19.6757 13.6693C16.3456 15.3096 14.896 20.0353 14.23 23.7456C13.6423 27.2215 13.5248 31.4004 13.9949 32.494C14.3083 33.236 14.6609 34.0171 23.6719 34.2124C24.4946 34.2514 25.3565 34.2905 26.2185 34.2905ZM34.0541 31.1271C31.0374 31.7129 19.4015 31.6348 16.5415 31.0099C16.3456 28.3541 17.0116 18.0826 20.9294 16.1298C25.0431 14.0989 31.5467 14.177 33.4664 14.5285C33.819 16.9499 33.9757 26.2061 34.0149 29.4086C34.0149 30.1116 34.0149 30.6975 34.0541 31.1271Z" fill="#202D37"/>
</g>
<g id="Group_12">
<path id="Vector_15" d="M47.9628 65.0662C52.9776 65.0662 61.7535 64.0898 64.5743 57.6067C67.1208 51.7483 65.828 41.9454 64.9661 40.6566C64.5743 40.0317 64.1433 39.3678 57.3263 39.1725C53.8787 39.0944 49.8041 39.1725 46.9833 39.4069C43.8882 39.6412 42.948 39.9536 42.5954 40.8519C42.1644 41.8283 42.282 48.3896 42.3603 52.217C42.6346 62.6448 43.1439 63.7383 43.3398 64.0898C43.614 64.6757 44.0842 64.871 44.3192 64.91C44.3584 64.91 45.808 65.0662 47.9628 65.0662ZM62.6938 42.336C63.1639 44.2497 64.0649 51.9437 62.0669 56.5131C59.4811 62.4495 48.8247 62.5667 45.6905 62.2933C45.1811 59.0126 44.8677 45.6167 45.1028 42.336C48.0411 41.8283 60.108 41.633 62.6938 42.336Z" fill="#202D37"/>
</g>
<g id="Group_13">
<path id="Vector_16" d="M35.151 47.8427H35.1901C35.9345 47.8036 36.5614 47.1787 36.5222 46.4367C36.483 45.1479 36.483 44.0543 36.483 43.117C36.483 40.5003 36.483 39.5239 35.7778 38.8209C35.2685 38.3132 35.1509 38.196 21.8696 38.4303C21.1252 38.4303 20.4983 39.0552 20.5375 39.8363C20.5375 40.5784 21.1644 41.1642 21.9087 41.1642C21.9087 41.1642 21.9088 41.1642 21.948 41.1642C26.571 41.0861 31.7425 41.0471 33.7405 41.0861C33.7797 41.6329 33.7797 42.3749 33.7797 43.117C33.7797 44.0543 33.7797 45.1869 33.8189 46.5148C33.8189 47.2568 34.4066 47.8427 35.151 47.8427Z" fill="#202D37"/>
</g>
<g id="Group_14">
<path id="Vector_17" d="M23.2017 63.6213C23.7501 63.6213 24.2594 63.3089 24.4553 62.8012C24.7688 62.0982 24.4162 61.3171 23.7502 61.0047C19.9107 59.3643 15.131 57.3334 15.9537 39.2898C15.9929 38.5478 15.4052 37.8839 14.6608 37.8448C13.9164 37.8057 13.2504 38.3916 13.2112 39.1336C12.3493 57.5287 17.2074 61.1608 22.6532 63.5042C22.849 63.5823 23.0058 63.6213 23.2017 63.6213Z" fill="#202D37"/>
</g>
<g id="Group_15">
<path id="Vector_18" d="M32.526 64.4804C34.9551 64.4804 35.9736 64.2461 36.4046 63.3088C36.6789 62.723 36.718 61.7466 36.7572 56.9428C36.7572 55.9274 36.7964 54.7947 36.7964 53.6231C36.7964 52.881 36.2088 52.2562 35.4644 52.2171C34.72 52.2171 34.0931 52.8029 34.0539 53.5449C34.0539 54.7166 34.0148 55.8492 34.0148 56.9037C33.9756 58.7784 33.9756 60.6921 33.8972 61.7075C32.9178 61.7856 31.0764 61.7466 30.1753 61.7075C29.666 61.7075 29.235 61.6685 28.9216 61.6685C28.1772 61.6685 27.5504 62.2934 27.5504 63.0354C27.5504 63.7775 28.1772 64.4024 28.9216 64.4024C29.1958 64.4024 29.5876 64.4023 30.0969 64.4414C31.0372 64.4805 31.86 64.4804 32.526 64.4804Z" fill="#202D37"/>
</g>
</g>
</svg>
