<svg width="50" height="50" viewBox="0 0 50 50" fill="none" xmlns="http://www.w3.org/2000/svg">
<g id="Caret / 24 / Outline">
<path id="Vector" d="M40.6247 23.1875L11.458 6.35419C11.1413 6.17134 10.7821 6.07507 10.4164 6.07507C10.0507 6.07507 9.6914 6.17134 9.37469 6.35419C9.05677 6.53774 8.79299 6.80204 8.61006 7.12032C8.42714 7.43861 8.33157 7.79958 8.33302 8.16669V41.8334C8.33157 42.2005 8.42714 42.5614 8.61006 42.8797C8.79299 43.198 9.05677 43.4623 9.37469 43.6459C9.6914 43.8287 10.0507 43.925 10.4164 43.925C10.7821 43.925 11.1413 43.8287 11.458 43.6459L40.6247 26.8125C40.9453 26.6308 41.212 26.3673 41.3975 26.0489C41.5831 25.7305 41.6808 25.3685 41.6808 25C41.6808 24.6315 41.5831 24.2696 41.3975 23.9511C41.212 23.6327 40.9453 23.3692 40.6247 23.1875ZM12.4997 38.2292V11.7709L35.4164 25L12.4997 38.2292Z" fill="white"/>
</g>
</svg>
