<svg width="32" height="32" viewBox="0 0 32 32" fill="none" xmlns="http://www.w3.org/2000/svg">
<g id="badge-check 1" clip-path="url(#clip0_3494_188)">
<path id="Vector" d="M32 16C32 13.7387 30.8533 11.7453 29.1093 10.5693C29.5107 8.50532 28.912 6.28532 27.3133 4.68532C25.7147 3.08666 23.4947 2.48799 21.4293 2.88932C20.2533 1.14532 18.26 -0.00134277 15.9986 -0.00134277C13.7373 -0.00134277 11.744 1.14532 10.568 2.88932C8.50398 2.48799 6.28265 3.08666 4.68398 4.68532C3.08531 6.28399 2.48665 8.50399 2.88798 10.5693C1.14398 11.7453 -0.00268555 13.7387 -0.00268555 16C-0.00268555 18.2613 1.14398 20.2547 2.88798 21.4307C2.48665 23.4947 3.08531 25.716 4.68398 27.3147C6.28265 28.9133 8.50265 29.512 10.568 29.1107C11.744 30.8547 13.7373 32.0013 15.9986 32.0013C18.26 32.0013 20.2533 30.8547 21.4293 29.1107C23.4933 29.512 25.7147 28.9133 27.3133 27.3147C28.912 25.716 29.5107 23.496 29.1093 21.4307C30.8533 20.2547 32 18.2613 32 16ZM15.8786 20.5587C15.3626 21.0747 14.684 21.332 14.0026 21.332C13.3213 21.332 12.636 21.072 12.1146 20.552L8.40532 16.9573L10.2626 15.0413L13.9866 18.6507L21.732 11.0493L23.604 12.9493L15.8786 20.5587Z" fill="#0B63E5"/>
</g>
<defs>
<clipPath id="clip0_3494_188">
<rect width="32" height="32" fill="white"/>
</clipPath>
</defs>
</svg>
