<svg width="25" height="20" viewBox="0 0 25 20" fill="none" xmlns="http://www.w3.org/2000/svg">
<path id="Vector" d="M2.3357 8.71006L16.7177 2.77372C18.1374 2.15535 22.952 0.176567 22.952 0.176567C22.952 0.176567 25.1741 -0.68915 24.989 1.4133C24.9272 2.27902 24.4334 5.30903 23.9396 8.58639L22.3965 18.2948C22.3965 18.2948 22.273 19.717 21.2237 19.9644C20.1744 20.2117 18.4461 19.0987 18.1374 18.8513C17.8905 18.6658 13.508 15.8831 11.9032 14.5227C11.4711 14.1517 10.9773 13.4097 11.9649 12.5439C14.187 10.5033 16.8412 7.96802 18.4461 6.36026C19.1868 5.61821 19.9275 3.88678 16.8412 5.98924L8.1379 11.8637C8.1379 11.8637 7.15029 12.4821 5.29853 11.9256C3.44676 11.369 1.28637 10.627 1.28637 10.627C1.28637 10.627 -0.195041 9.69945 2.3357 8.71006Z" fill="white"/>
</svg>
